<?xml version="1.0" encoding="utf-8"?>
<!-- Generator: Adobe Illustrator 19.1.1, SVG Export Plug-In . SVG Version: 6.00 Build 0)  -->
<svg version="1.1" id="Logo" xmlns="http://www.w3.org/2000/svg" xmlns:xlink="http://www.w3.org/1999/xlink" x="0px" y="0px"
	 viewBox="0 0 397.2 166" style="enable-background:new 0 0 397.2 166;" xml:space="preserve">
<style type="text/css">
	.st0{fill:#004B8F;}
	.st1{fill:#F9E107;}
	.st2{fill:#FFFFFF;}
</style>
<g>
	<g>
		<rect x="58.2" y="-274" class="st0" width="13.2" height="13.2"/>
		<rect x="76.8" y="-274" class="st0" width="13.2" height="13.2"/>
		<rect x="95.3" y="-274" class="st0" width="13.2" height="13.2"/>
		<rect x="58.2" y="-256.5" class="st0" width="13.2" height="13.2"/>
		<rect x="76.8" y="-256.5" class="st0" width="13.2" height="13.2"/>
		<rect x="95.3" y="-256.5" class="st0" width="13.2" height="13.2"/>
		<rect x="58.2" y="-239" class="st0" width="13.2" height="13.2"/>
		<rect x="76.8" y="-239" class="st0" width="13.2" height="13.2"/>
		<rect x="95.3" y="-239" class="st0" width="13.2" height="13.2"/>
	</g>
	<g>
		<path class="st0" d="M136.2-278.4c0.8-6.5,3.5-13.8,16.5-13.8c5.7,0,8.4,1.1,10.1,2.1c3.7,2.1,6.2,6,6.2,10.8
			c0,7.7-5.5,12.2-12.6,17.9c-1.1,0.9-4.7,4-5.5,5.5h18.3v9.1h-33.9c0.8-7.3,4.2-12.2,14.9-21.1c4.9-4.1,8.3-6.9,8.3-11.1
			c0-3.5-2.5-5.4-5.6-5.4c-5.3,0-5.9,5.1-6,6.9L136.2-278.4z"/>
		<path class="st0" d="M202-246.7h-10.7V-278c-3.6,3.1-8,5.2-12.1,6.5v-9.1c4-1.3,11-4.5,14.1-11.7h8.7V-246.7z"/>
		<path class="st0" d="M229.5-243.5H221V-296h37.5v52.4l-8.7-0.1v-4.1l-20.4,0.1V-243.5z M249.9-287.6h-20.4v11.4h20.4V-287.6z
			 M249.9-268.1h-20.4v12h20.4V-268.1z"/>
		<path class="st0" d="M291.3-256.2c-1.3-2.8-2.3-5.9-3.6-8.7l12.9-5.4v-4.7c-0.9,0.3-2.2,0.7-3.8,1.5c-1.2-3.1-2.8-6-3.9-7.7
			l-0.1,2.4h-5.2v5c2.3-0.7,3.6-1.1,5.9-1.8v7.3l-6,2.8v17.7c0,2.5-3,4.7-7.1,5.1l-2.9,0.3c-0.8-3.3-1.9-6.7-3.5-9.5
			c1.6,0,3.3,0.3,4.7-0.1c0.4-0.2,0.7-0.8,0.7-1.3v-8.5l-4.5,2.2c-0.6-3.3-1-6.6-1.4-10l5.8-1.5v-7.7H274v-8.4h5.1v-8.6
			c0-0.3-0.3-0.9-0.6-1.4c-0.2-0.4,0-0.9,0.6-0.9h8.3v10.9h5.2v1.1c1.9-0.7,3.2-1.1,5-1.6c0.6,0.7,1.8,2.3,2.9,3.5V-296
			c0-0.4-0.3-0.9-0.6-1.3c-0.2-0.5,0.1-0.9,0.6-0.9h8v36.5c0,5.7-1.9,10.8-6.7,15c-2.1,1.8-4.2,3.2-6.5,4.3
			c-1.6-2.3-3.8-4.4-5.9-6.3c3.6-1.7,7.9-4.6,9.7-8.6c0.6-1.3,0.9-2.7,1.1-4L291.3-256.2z M329.5-284.8c-3.8,3.5-7.7,6.8-11.9,9.4
			c-0.2,0.4-0.1,1-0.1,1.5c4.4,2.1,8.9,4.3,12.6,7.8c-2,2.3-4,4.5-5.5,6.9c-2.2-2.3-5.9-4.9-7.1-5.7v11.4c0,0.8,0.6,1.1,1,1.1
			c0.8,0,1.8-0.1,2.2-0.6c1.1-2.3,1.6-4,2.4-6.2c2,1.3,4.2,2.5,7.2,3.5c-0.8,3.6-1.9,8.2-3.8,10.4c-1.4,1.6-5.2,1.7-7.9,1.7
			c-4.8,0-6.1,0.1-7.8-2.5c-1.3-1.9-1.1-4.4-1.1-7.2v-44.9l7.7,0.1v13.3c0.9-1,3.4-4.2,4.2-5.2L329.5-284.8z"/>
		<path class="st0" d="M393.8-276.1l-11.9,1.6c0.3,3.5,0.3,5.2,0.8,8.2c1.7-2.1,3.7-4.8,5-7.4l6.7,3.3c-3,5.6-5.5,9-9.5,13.7
			c0.5,1.7,1.7,4.1,2.8,5.1c0.4,0.3,0.6-0.3,0.8-0.7c0.6-1.9,0.7-3.4,0.8-5.5c1.9,1.2,4.4,2.6,6.9,2.8c-0.3,3.9-0.6,6.8-3.1,10.6
			c-1.5,1.4-4.2,2.5-6.3,2.1c-3.6-0.8-6.5-5.3-7.9-8.2c-2.5,2.5-5.2,4.4-8.4,6.7c-1.3-2.1-4.1-4.3-6.3-5.8c1.8-1,2.5-1.4,3.7-1.9
			l-8.7-0.1v9.3l-7.8-0.1v-9.2h-11.4l0.1-7.5h11.3v-1.6h-9.7v-20.6l27.5-0.1v20.7h-9.9v1.6h11.4v5.5c1.5-1.1,3.7-3.3,5.3-5.1
			c-1.2-5.2-1.6-9.6-1.9-14.7l-3.4,0.6c-0.4-2.5-0.7-5.5-1-7.9l3.9-0.4c-0.4-5.5-0.4-10.9-0.4-16.5l8-0.5
			c-0.2,5.2-0.1,11.3,0.3,15.9l11.6-1.4L393.8-276.1z M354.6-296.6v14.4h-14.4v-14.4H354.6z M348.5-290.6h-2.1v2.2h2.1V-290.6z
			 M348.4-274.1h2.9v-1.5h-2.9V-274.1z M348.4-266.8h2.9v-1.5h-2.9V-266.8z M370-296.6v14.4h-14.4v-14.4H370z M359.1-274.1h2.5v-1.5
			h-2.5V-274.1z M359.1-266.8h2.5v-1.5h-2.5V-266.8z M363.7-290.6h-2.3v2.2h2.3V-290.6z M388.6-296.3c2.4,3,3.8,6.2,5.2,9.6
			c-2.8,0.6-4.8,1.6-7,2.7c-1.1-3.2-2.8-6.9-4.7-9.9L388.6-296.3z"/>
	</g>
	<g>
		<g>
			<path class="st0" d="M172.3-222.5h9.3v3.8h-9.3V-222.5z"/>
			<path class="st0" d="M185.5-234.3h9.5c5.7,0,10,3.6,10,10.9c0,6.4-3.3,11.2-10,11.2h-9.5V-234.3z M190.3-216.2h4.3
				c2.8,0,5.5-1.7,5.5-6.6c0-4.5-1.5-7.3-6.4-7.3h-3.5V-216.2z"/>
			<path class="st0" d="M207.8-223.2c0.2-4.1,3.9-5.4,7.5-5.4c3.2,0,7,0.7,7,4.6v8.3c0,1.5,0.2,2.9,0.6,3.6h-4.5
				c-0.2-0.5-0.3-1-0.3-1.5c-1.4,1.5-3.4,2-5.4,2c-3,0-5.5-1.5-5.5-4.8c0-3.6,2.7-4.5,5.5-4.9c2.7-0.4,5.2-0.3,5.2-2.1
				c0-1.9-1.3-2.2-2.8-2.2c-1.7,0-2.8,0.7-2.9,2.4H207.8z M217.9-220c-0.7,0.6-2.3,0.7-3.7,0.9c-1.4,0.3-2.6,0.7-2.6,2.4
				c0,1.6,1.3,2,2.7,2c3.4,0,3.6-2.7,3.6-3.7V-220z"/>
			<path class="st0" d="M233.6-210.1c-1,2.6-2.5,3.6-5.5,3.6c-0.9,0-1.8-0.1-2.7-0.2v-3.6c0.8,0.1,1.7,0.2,2.6,0.2
				c1.5-0.2,2-1.7,1.5-3l-5.6-15h4.7l3.6,11h0.1l3.5-11h4.6L233.6-210.1z"/>
			<path class="st0" d="M265.6-226.8c-0.3-2.2-2.4-3.9-4.8-3.9c-4.4,0-6,3.7-6,7.6c0,3.7,1.6,7.4,6,7.4c3,0,4.6-2,5-5h4.7
				c-0.5,5.5-4.3,9-9.7,9c-6.8,0-10.9-5.1-10.9-11.5c0-6.6,4-11.7,10.9-11.7c4.9,0,9,2.8,9.5,8H265.6z"/>
			<path class="st0" d="M273.4-234.3h4.4v8.3h0.1c1.1-1.8,3-2.7,4.7-2.7c4.7,0,5.9,2.6,5.9,6.6v9.8H284v-9c0-2.6-0.8-3.9-2.8-3.9
				c-2.4,0-3.4,1.3-3.4,4.6v8.4h-4.4V-234.3z"/>
			<path class="st0" d="M291.5-223.2c0.2-4.1,3.9-5.4,7.5-5.4c3.2,0,7,0.7,7,4.6v8.3c0,1.5,0.2,2.9,0.6,3.6h-4.5
				c-0.2-0.5-0.3-1-0.3-1.5c-1.4,1.5-3.4,2-5.4,2c-3,0-5.5-1.5-5.5-4.8c0-3.6,2.7-4.5,5.5-4.9c2.7-0.4,5.2-0.3,5.2-2.1
				c0-1.9-1.3-2.2-2.8-2.2c-1.7,0-2.8,0.7-2.9,2.4H291.5z M301.7-220c-0.7,0.6-2.3,0.7-3.7,0.9c-1.4,0.3-2.6,0.7-2.6,2.4
				c0,1.6,1.3,2,2.7,2c3.4,0,3.6-2.7,3.6-3.7V-220z"/>
			<path class="st0" d="M309.6-234.3h4.4v22.1h-4.4V-234.3z"/>
			<path class="st0" d="M317.6-234.3h4.4v22.1h-4.4V-234.3z"/>
			<path class="st0" d="M329.1-219.1c0.1,2.8,1.5,4.1,3.9,4.1c1.8,0,3.2-1.1,3.5-2.1h3.9c-1.2,3.8-3.9,5.4-7.5,5.4
				c-5,0-8.2-3.5-8.2-8.4c0-4.8,3.3-8.5,8.2-8.5c5.5,0,8.1,4.6,7.8,9.5H329.1z M336.3-221.9c-0.4-2.2-1.4-3.4-3.5-3.4
				c-2.8,0-3.6,2.2-3.7,3.4H336.3z"/>
			<path class="st0" d="M343.3-228.2h4.2v2.2h0.1c1.1-1.8,3-2.7,4.9-2.7c4.7,0,5.9,2.6,5.9,6.6v9.8h-4.4v-9c0-2.6-0.8-3.9-2.8-3.9
				c-2.4,0-3.4,1.3-3.4,4.6v8.4h-4.4V-228.2z"/>
			<path class="st0" d="M377-213.2c0,2.6-0.9,7.1-8.3,7.1c-3.2,0-6.8-1.5-7.1-5.1h4.4c0.4,1.6,1.7,2.2,3.3,2.2c2.4,0,3.6-1.7,3.5-4
				v-2.1h-0.1c-1,1.7-2.9,2.5-4.8,2.5c-4.8,0-6.8-3.7-6.8-8.1c0-4.2,2.4-7.9,6.9-7.9c2.1,0,3.7,0.7,4.8,2.6h0.1v-2.1h4.2V-213.2z
				 M372.8-220.4c0-2.6-0.9-4.9-3.7-4.9c-2.5,0-3.6,2.2-3.6,4.6c0,2.3,0.9,4.8,3.6,4.8C371.6-215.9,372.8-218.1,372.8-220.4z"/>
			<path class="st0" d="M384.2-219.1c0.1,2.8,1.5,4.1,3.9,4.1c1.8,0,3.2-1.1,3.5-2.1h3.9c-1.2,3.8-3.9,5.4-7.5,5.4
				c-5,0-8.2-3.5-8.2-8.4c0-4.8,3.3-8.5,8.2-8.5c5.5,0,8.1,4.6,7.8,9.5H384.2z M391.3-221.9c-0.4-2.2-1.4-3.4-3.5-3.4
				c-2.8,0-3.6,2.2-3.7,3.4H391.3z"/>
		</g>
		<g>
			<path class="st0" d="M135.7-227c0.4-3.3,1.8-7.1,8.4-7.1c2.9,0,4.3,0.6,5.2,1.1c1.9,1.1,3.1,3.1,3.1,5.5c0,3.9-2.8,6.2-6.4,9.1
				c-0.6,0.4-2.4,2-2.8,2.8h9.3v4.6h-17.3c0.4-3.7,2.1-6.2,7.6-10.8c2.5-2.1,4.2-3.5,4.2-5.6c0-1.8-1.3-2.8-2.9-2.8
				c-2.7,0-3,2.6-3.1,3.5L135.7-227z"/>
			<path class="st0" d="M169.2-210.8h-5.4v-15.9c-1.9,1.6-4.1,2.7-6.2,3.3v-4.6c2.1-0.6,5.6-2.3,7.2-6h4.4V-210.8z"/>
		</g>
	</g>
	<path class="st1" d="M129.9-200c-12.4,11.6-29.1,18.6-47.4,18.6c-38.5,0-69.6-31.2-69.6-69.6c0-38.5,31.2-69.6,69.6-69.6
		c18,0,34.4,6.8,46.7,18h17.6c-15.1-18.8-38.3-30.9-64.4-30.9C36.9-333.5,0-296.6,0-251c0,45.6,36.9,82.5,82.5,82.5
		c26.3,0,49.7-12.3,64.8-31.5H129.9z"/>
</g>
<g>
	<g>
		<rect x="59.2" y="59.6" class="st2" width="13.2" height="13.2"/>
		<rect x="77.8" y="59.6" class="st2" width="13.2" height="13.2"/>
		<rect x="96.3" y="59.6" class="st2" width="13.2" height="13.2"/>
		<rect x="59.2" y="77.1" class="st2" width="13.2" height="13.2"/>
		<rect x="77.8" y="77.1" class="st2" width="13.2" height="13.2"/>
		<rect x="96.3" y="77.1" class="st2" width="13.2" height="13.2"/>
		<rect x="59.2" y="94.5" class="st2" width="13.2" height="13.2"/>
		<rect x="77.8" y="94.5" class="st2" width="13.2" height="13.2"/>
		<rect x="96.3" y="94.5" class="st2" width="13.2" height="13.2"/>
	</g>
	<g>
		<path class="st2" d="M137.2,55.2c0.8-6.5,3.5-13.8,16.5-13.8c5.7,0,8.4,1.1,10.1,2.1c3.7,2.1,6.2,6,6.2,10.8
			c0,7.7-5.5,12.2-12.6,17.9c-1.1,0.9-4.7,4-5.5,5.5h18.3v9.1h-33.9c0.8-7.3,4.2-12.2,14.9-21.1c4.9-4.1,8.3-6.9,8.3-11.1
			c0-3.5-2.5-5.4-5.6-5.4c-5.3,0-5.9,5.1-6,6.9L137.2,55.2z"/>
		<path class="st2" d="M203,86.8h-10.7V55.6c-3.6,3.1-8,5.2-12.1,6.5v-9.1c4-1.3,11-4.5,14.1-11.7h8.7V86.8z"/>
		<path class="st2" d="M230.5,90H222V37.6h37.5V90l-8.7-0.1v-4.1l-20.4,0.1V90z M250.9,45.9h-20.4v11.4h20.4V45.9z M250.9,65.4
			h-20.4v12h20.4V65.4z"/>
		<path class="st2" d="M292.3,77.4c-1.3-2.8-2.3-5.9-3.6-8.7l12.9-5.4v-4.7c-0.9,0.3-2.2,0.7-3.8,1.5c-1.2-3.1-2.8-6-3.9-7.7
			l-0.1,2.4h-5.2v5c2.3-0.7,3.6-1.1,5.9-1.8v7.3l-6,2.8v17.7c0,2.5-3,4.7-7.1,5.1l-2.9,0.3c-0.8-3.3-1.9-6.7-3.5-9.5
			c1.6,0,3.3,0.3,4.7-0.1c0.4-0.2,0.7-0.8,0.7-1.3v-8.5l-4.5,2.2c-0.6-3.3-1-6.6-1.4-10l5.8-1.5v-7.7H275v-8.4h5.1v-8.6
			c0-0.3-0.3-0.9-0.6-1.4c-0.2-0.4,0-0.9,0.6-0.9h8.3v10.9h5.2v1.1c1.9-0.7,3.2-1.1,5-1.6c0.6,0.7,1.8,2.3,2.9,3.5V37.5
			c0-0.4-0.3-0.9-0.6-1.3c-0.2-0.5,0.1-0.9,0.6-0.9h8v36.5c0,5.7-1.9,10.8-6.7,15c-2.1,1.8-4.2,3.2-6.5,4.3
			c-1.6-2.3-3.8-4.4-5.9-6.3c3.6-1.7,7.9-4.6,9.7-8.6c0.6-1.3,0.9-2.7,1.1-4L292.3,77.4z M330.5,48.7c-3.8,3.5-7.7,6.8-11.9,9.4
			c-0.2,0.4-0.1,1-0.1,1.5c4.4,2.1,8.9,4.3,12.6,7.8c-2,2.3-4,4.5-5.5,6.9c-2.2-2.3-5.9-4.9-7.1-5.7v11.4c0,0.8,0.6,1.1,1,1.1
			c0.8,0,1.8-0.1,2.2-0.6c1.1-2.3,1.6-4,2.4-6.2c2,1.3,4.2,2.5,7.2,3.5c-0.8,3.6-1.9,8.2-3.8,10.4c-1.4,1.6-5.2,1.7-7.9,1.7
			c-4.8,0-6.1,0.1-7.8-2.5c-1.3-1.9-1.1-4.4-1.1-7.2V35.4l7.7,0.1v13.3c0.9-1,3.4-4.2,4.2-5.2L330.5,48.7z"/>
		<path class="st2" d="M394.8,57.4L382.9,59c0.3,3.5,0.3,5.2,0.8,8.2c1.7-2.1,3.7-4.8,5-7.4l6.7,3.3c-3,5.6-5.5,9-9.5,13.7
			c0.5,1.7,1.7,4.1,2.8,5.1c0.4,0.3,0.6-0.3,0.8-0.7c0.6-1.9,0.7-3.4,0.8-5.5c1.9,1.2,4.4,2.6,6.9,2.8c-0.3,3.9-0.6,6.8-3.1,10.6
			c-1.5,1.4-4.2,2.5-6.3,2.1c-3.6-0.8-6.5-5.3-7.9-8.2c-2.5,2.5-5.2,4.4-8.4,6.7c-1.3-2.1-4.1-4.3-6.3-5.8c1.8-1,2.5-1.4,3.7-1.9
			l-8.7-0.1v9.3l-7.8-0.1v-9.2h-11.4l0.1-7.5h11.3v-1.6h-9.7V52.2l27.5-0.1v20.7h-9.9v1.6h11.4v5.5c1.5-1.1,3.7-3.3,5.3-5.1
			c-1.2-5.2-1.6-9.6-1.9-14.7l-3.4,0.6c-0.4-2.5-0.7-5.5-1-7.9l3.9-0.4c-0.4-5.5-0.4-10.9-0.4-16.5l8-0.5
			c-0.2,5.2-0.1,11.3,0.3,15.9l11.6-1.4L394.8,57.4z M355.6,36.9v14.4h-14.4V36.9H355.6z M349.5,43h-2.1v2.2h2.1V43z M349.4,59.5
			h2.9V58h-2.9V59.5z M349.4,66.8h2.9v-1.5h-2.9V66.8z M371,36.9v14.4h-14.4V36.9H371z M360.1,59.5h2.5V58h-2.5V59.5z M360.1,66.8
			h2.5v-1.5h-2.5V66.8z M364.7,43h-2.3v2.2h2.3V43z M389.6,37.3c2.4,3,3.8,6.2,5.2,9.6c-2.8,0.6-4.8,1.6-7,2.7
			c-1.1-3.2-2.8-6.9-4.7-9.9L389.6,37.3z"/>
	</g>
	<g>
		<g>
			<path class="st2" d="M173.3,111h9.3v3.8h-9.3V111z"/>
			<path class="st2" d="M186.5,99.3h9.5c5.7,0,10,3.6,10,10.9c0,6.4-3.3,11.2-10,11.2h-9.5V99.3z M191.3,117.3h4.3
				c2.8,0,5.5-1.7,5.5-6.6c0-4.5-1.5-7.3-6.4-7.3h-3.5V117.3z"/>
			<path class="st2" d="M208.8,110.3c0.2-4.1,3.9-5.4,7.5-5.4c3.2,0,7,0.7,7,4.6v8.3c0,1.5,0.2,2.9,0.6,3.6h-4.5
				c-0.2-0.5-0.3-1-0.3-1.5c-1.4,1.5-3.4,2-5.4,2c-3,0-5.5-1.5-5.5-4.8c0-3.6,2.7-4.5,5.5-4.9c2.7-0.4,5.2-0.3,5.2-2.1
				c0-1.9-1.3-2.2-2.8-2.2c-1.7,0-2.8,0.7-2.9,2.4H208.8z M218.9,113.6c-0.7,0.7-2.3,0.7-3.7,0.9c-1.4,0.3-2.6,0.7-2.6,2.4
				c0,1.6,1.3,2,2.7,2c3.4,0,3.6-2.7,3.6-3.7V113.6z"/>
			<path class="st2" d="M234.6,123.4c-1,2.6-2.5,3.6-5.5,3.6c-0.9,0-1.8-0.1-2.7-0.2v-3.6c0.8,0.1,1.7,0.2,2.6,0.2
				c1.5-0.2,2-1.7,1.5-3l-5.6-15h4.7l3.6,11h0.1l3.5-11h4.6L234.6,123.4z"/>
			<path class="st2" d="M266.6,106.7c-0.3-2.2-2.4-3.9-4.8-3.9c-4.4,0-6,3.7-6,7.6c0,3.7,1.6,7.4,6,7.4c3,0,4.6-2,5-5h4.7
				c-0.5,5.5-4.3,9-9.7,9c-6.8,0-10.9-5.1-10.9-11.5c0-6.6,4-11.7,10.9-11.7c4.9,0,9,2.8,9.5,8H266.6z"/>
			<path class="st2" d="M274.4,99.3h4.4v8.3h0.1c1.1-1.8,3-2.7,4.7-2.7c4.7,0,5.9,2.6,5.9,6.6v9.8H285v-9c0-2.6-0.8-3.9-2.8-3.9
				c-2.4,0-3.4,1.3-3.4,4.6v8.4h-4.4V99.3z"/>
			<path class="st2" d="M292.5,110.3c0.2-4.1,3.9-5.4,7.5-5.4c3.2,0,7,0.7,7,4.6v8.3c0,1.5,0.2,2.9,0.6,3.6h-4.5
				c-0.2-0.5-0.3-1-0.3-1.5c-1.4,1.5-3.4,2-5.4,2c-3,0-5.5-1.5-5.5-4.8c0-3.6,2.7-4.5,5.5-4.9c2.7-0.4,5.2-0.3,5.2-2.1
				c0-1.9-1.3-2.2-2.8-2.2c-1.7,0-2.8,0.7-2.9,2.4H292.5z M302.7,113.6c-0.7,0.7-2.3,0.7-3.7,0.9c-1.4,0.3-2.6,0.7-2.6,2.4
				c0,1.6,1.3,2,2.7,2c3.4,0,3.6-2.7,3.6-3.7V113.6z"/>
			<path class="st2" d="M310.6,99.3h4.4v22.1h-4.4V99.3z"/>
			<path class="st2" d="M318.6,99.3h4.4v22.1h-4.4V99.3z"/>
			<path class="st2" d="M330.1,114.5c0.1,2.8,1.5,4.1,3.9,4.1c1.8,0,3.2-1.1,3.5-2.1h3.9c-1.2,3.8-3.9,5.4-7.5,5.4
				c-5,0-8.2-3.5-8.2-8.4c0-4.8,3.3-8.5,8.2-8.5c5.5,0,8.1,4.6,7.8,9.5H330.1z M337.3,111.7c-0.4-2.2-1.4-3.4-3.5-3.4
				c-2.8,0-3.6,2.2-3.7,3.4H337.3z"/>
			<path class="st2" d="M344.3,105.4h4.2v2.2h0.1c1.1-1.8,3-2.7,4.9-2.7c4.7,0,5.9,2.6,5.9,6.6v9.8h-4.4v-9c0-2.6-0.8-3.9-2.8-3.9
				c-2.4,0-3.4,1.3-3.4,4.6v8.4h-4.4V105.4z"/>
			<path class="st2" d="M378,120.4c0,2.6-0.9,7.1-8.3,7.1c-3.2,0-6.8-1.5-7.1-5.1h4.4c0.4,1.6,1.7,2.2,3.3,2.2c2.4,0,3.6-1.7,3.5-4
				v-2.1h-0.1c-1,1.7-2.9,2.5-4.8,2.5c-4.8,0-6.8-3.7-6.8-8.1c0-4.2,2.4-7.9,6.9-7.9c2.1,0,3.7,0.7,4.8,2.6h0.1v-2.1h4.2V120.4z
				 M373.8,113.2c0-2.6-0.9-4.9-3.7-4.9c-2.5,0-3.6,2.2-3.6,4.6c0,2.3,0.9,4.8,3.6,4.8C372.6,117.6,373.8,115.5,373.8,113.2z"/>
			<path class="st2" d="M385.2,114.5c0.1,2.8,1.5,4.1,3.9,4.1c1.8,0,3.2-1.1,3.5-2.1h3.9c-1.2,3.8-3.9,5.4-7.5,5.4
				c-5,0-8.2-3.5-8.2-8.4c0-4.8,3.3-8.5,8.2-8.5c5.5,0,8.1,4.6,7.8,9.5H385.2z M392.3,111.7c-0.4-2.2-1.4-3.4-3.5-3.4
				c-2.8,0-3.6,2.2-3.7,3.4H392.3z"/>
		</g>
		<g>
			<path class="st2" d="M136.7,106.6c0.4-3.3,1.8-7.1,8.4-7.1c2.9,0,4.3,0.6,5.2,1.1c1.9,1.1,3.1,3.1,3.1,5.5c0,3.9-2.8,6.2-6.4,9.1
				c-0.6,0.4-2.4,2-2.8,2.8h9.3v4.6h-17.3c0.4-3.7,2.1-6.2,7.6-10.8c2.5-2.1,4.2-3.5,4.2-5.6c0-1.8-1.3-2.8-2.9-2.8
				c-2.7,0-3,2.6-3.1,3.5L136.7,106.6z"/>
			<path class="st2" d="M170.2,122.7h-5.4v-15.9c-1.9,1.6-4.1,2.7-6.2,3.3v-4.6c2.1-0.6,5.6-2.3,7.2-6h4.4V122.7z"/>
		</g>
	</g>
	<path class="st1" d="M130.9,133.5c-12.4,11.6-29.1,18.6-47.4,18.6c-38.5,0-69.6-31.2-69.6-69.6C13.9,44,45,12.9,83.5,12.9
		c18,0,34.4,6.8,46.7,18h17.6C132.7,12.1,109.5,0,83.5,0C37.9,0,1,36.9,1,82.5C1,128.1,37.9,165,83.5,165
		c26.3,0,49.7-12.3,64.8-31.5H130.9z"/>
</g>
</svg>
