<svg xmlns="http://www.w3.org/2000/svg" xmlns:xlink="http://www.w3.org/1999/xlink" width="202" height="56" viewBox="0 0 202 56">
    <defs>
        <path id="a" d="M.029.048h50.96v29.374H.029z"/>
        <path id="c" d="M0 .324h195.363v35.5H0z"/>
        <path id="e" d="M.094.259H17.53v16.748H.094z"/>
    </defs>
    <g fill="none" fill-rule="evenodd">
        <path fill="#FFF" d="M57.199 23.804c-.336.572-.798 1.162-1.37 1.755l-.068.07-.535-.368.042-.088c.562-1.211.517-3.11.462-5.309l-.01-.483.672-.057.016.107c.288 1.96.496 2.994.825 4.1l.044.144-.078.13zm-6.075-8.928v-3.051l4.106.032.155 3.016-4.26.003zm1.378 6.04c0 .24-.136.468-.375.625-.204.135-.476.21-.764.21-.136 0-.276-.017-.417-.05l-.367-.082.114-.358c.16-.507.253-1.238.283-2.234l.01-.324 1.516-.055v2.269zM40.594 4.139v6.208l-1.821.001v5.01h1.821v5.74l-2.084.588.684 5.367 2.677-.953c1.213-.433 3.152-4.438 3.471-6.647l-.604.275v-4.37l.825-.009V10.53l1.61.002c.058 4.502.08 7.779-.41 9.838-1.254 5.248-3.607 6.98-4.534 7.594l3.42 3.392c1.53-1.224 3.032-3.304 4.346-6.022l.35-.724.87 2.305c.231-.039.464-.073.694-.107.74-.11 1.438-.213 2.024-.438l.093-.035.324.566-.078.06a24.28 24.28 0 0 1-2.043 1.46l3.475 2.987c.19-.157.43-.332.68-.515.714-.524 1.69-1.24 2.395-2.137l.314-.4.289.495c.499.86 1.065 1.835 1.685 2.162.236.162.498.241.802.241.567 0 1.267-.272 2.128-.824.39-.318 1.411-1.297 2.044-2.153l-1.468-4.681-.715 1.033-.25.151c-.312.192-.607.373-.92.373-.407 0-.708-.298-.893-.887l-.044-.14.07-.128c1.436-2.632 2.825-5.81 3.821-8.739l-3.39-1.743c-.367 1.664-1.023 3.44-1.361 4.245l-.363.865-.284-.893c-.427-1.338-.662-3.81-.733-5.522l-.014-.357 4.909-.034v-1.544l1.601-.554-2.457-5.288-3.139.958.845 1.658h-2.159V1.459l-10.536.181v.576l6.06-.105v4.944l-7.488.005c.009 1.016.021 1.981.034 2.898l-2.034-.003V3.366l-6.813.088v.576L40.594 4v.138zM20.282 12.897l-.888-.016-4.196-.012v-1.266l5.821.016a27.855 27.855 0 0 0 2.934-2.452l.237-.23.24.227c.94.885 2.197 1.869 3.96 3.099l.901.628-9.009.006zm.919 11.396h.055v2.272l-9.789.007v4.177l-4.819-.008v.576l4.819.008v.018l8.108-.005 3.374.005v-.008l14.39-.01v-4.77l-10.685.007v-1.014l-1.193-.001V24.28l5.105.007 3.49-.003v-4.293l-7.402.005v-2.274l7.9.024-.037-1.382.528.293c.122.067.227.094.376.132l.106.028 2.793-4.656c-3.562-1.604-7.777-4.593-11.046-7.834l-14.642.01v4.412l3.74-.002-.59.59c-.75.75-2.77 1.876-5.291 2.95l2.195 4.417a7.91 7.91 0 0 1 .129-.056c.042-.034.101-.072.262-.158l.496-.264.035 1.535 7.648-.035V20l-6.924.004v3.921L4.9 23.911v.575l16.3.026v-.219z"/>
        <g transform="translate(150.982 2.165)">
            <mask id="b" fill="#fff">
                <use xlink:href="#a"/>
            </mask>
            <path fill="#FFF" d="M21.549 9.881c-.09 1.901-.15 3.766-.18 5.541l-.01.633-.526-.35c-.39-.26-.69-.529-.89-.797l-.07-.092.004-.495c.195-1.28.346-2.703.475-4.48l.023-.32 1.19-.001-.016.361zm-5.362 2.25l-1.865-1.5V9.526l2.061-.002-.196 2.608zm-1.268 4.744a5.347 5.347 0 0 1-1.847 1.627l-.06.032-2.688.288v-1.415l2.387-.002v-2.592h-2.387v-1.227l4.107-.002-.805 1.749c.436.383.848.743 1.238 1.08l.238.206-.183.256zm-6.74-4.328l-2 .002v2.148l-2.464.002.769-.615a7.857 7.857 0 0 0 1.086-1.089l.378-.446h-.052l.406-.55c.384-.523.678-1.041.85-1.5l.084-.224h.943v2.272zm5.163-2.276l-.002.726c.043.391-.133.731-.51.982l-.087.058h-.105c-.562 0-.967-.35-1.084-.932l-.007-.035v-.797l1.795-.002zm-3.018-2.829V6.065l3.316-.002V7.44l-3.316.002zm17.255 21.403c-.142-.55-.298-1.256-.463-1.687-.665-1.735-1.417-3.702-1.826-5.048l-.088-.293.28-.123c.884-.392 1.533-.781 1.931-1.16l-.412-5.42-.565.495h-.129c-.42 0-.736-.252-.878-.725l-.004-.067c0-1.559.036-3.117.1-4.67l10.21.014v-.575L25.55 9.572c.073-1.581.178-3.154.319-4.707l-4.692.004v-2.83l5.54-.081v-.576l-10.302.152v3.338l-2.6.001v-1.7l-3.363.001V.756L20.596.624V.048L5.55.244V3.178l-3.67.002v2.861l3.672-.002v1.377l-4.477.003v2.92h1.676l-.4.548c-.45.62-1.21 1.306-2.323 2.096l1.52 3.348c.347-.108.663-.25.94-.42l.526-.325v1.855l3.224-.002v1.37l-4.672.093.15 3.726L2.8 22.51l-.265.558c-.207.435-.485 1.31-.782 2.245-.45 1.418-.957 3.122-1.488 4.108h5.084l2.065-6.108-1.954-1.116 8.689-.809 1.555 1.659h-.725c.295 1.988.59 4.314.884 6.374h4.894c-.373-1.677-.778-3.942-1.136-5.678l-.22-1.054-3.363.038.559-.591c.487-.518.948-1.25 1.369-2.176l.192-.421.349.304c.47.408.931.773 1.373 1.084l1.624-2.583.132.932c.113.781.42 1.467.94 2.097l.284.345-2.118.982c.81 2.252 1.494 4.718 2.037 6.721h4.97l-.001-.001 23.243-.008v-.575l-23.411.007z" mask="url(#b)"/>
        </g>
        <g transform="translate(0 .091)">
            <mask id="d" fill="#fff">
                <use xlink:href="#c"/>
            </mask>
            <path fill="#FFF" d="M101.588 22.56v-2.427l-1.254.005V18.87l2.986-.01v-1.265l2.47 2.605-2.249 2.21-.266-.646-1.687.795zM98.334 9.206l4.486-.017.384.006v3.789l2.819-.002-2.972 2.38v-1.389l-1.463.001V10.46l-3.254.012V9.206zm10.96 13.649v3.38l-2.854.002.557-.584a21.816 21.816 0 0 0 1.675-1.97l.621-.828zm-2.374-3.048l2.373-2.238v5.02l-2.373-2.782zm2.373-6.828v3.923l-3.156-3.92 3.156-.003zm2.433 18.459h.102c1.698 0 2.302-.271 2.302-1.795l-.161-5.696.673 1.07c1.389 2.205 2.794 3.905 4.176 5.054l3.272-4.55a30.865 30.865 0 0 1-5.337-5.825l-.052-.074.413-.473 1.93.991 2.448-4.423-4.237-2.4-1.896 3.348-.311-.466c-.336-.503-.506-1.17-.506-1.982v-1.24l7.4-.006V8.41l-2.22.002-.155-.606 1.054-.576-2.239-3.23-3.386 1.625 1.957 2.789-2.25.001V.951l-.092-.008L117.874.9V.323l-8.58.116v.058h-.001v7.92l-5.078.004V4.332l-9.307.006v4.86h2.387v4.78h-2.179v4.92h2.18v5.405l-2.37 1.039.42 5.194 6.107-2.476 1.125 1.904.053-.041-4.393 4.569L0 34.505v1.32h98.652l7.442-7.741.757 1.905-5.593 5.817 1.69.005 4.398-4.575.075.19 2.626-.002-4.213 4.395 89.529.006v-1.32l-86.56-.015 2.923-3.052z" mask="url(#d)"/>
        </g>
        <path fill="#FFF" d="M159.629 25.164c-.057 2.23-.088 4.56-.09 6.423h5.06c-.11-2.117-.196-4.565-.266-6.348l-4.704-.075zM73.536 11.309V8.887l12.838-.009V11.3l-12.838.009zm1.54 6.19l-4.64.012c-.42 3.74-1.875 7.589-3.91 10.34l3.845 3.577c1.055-1.185 1.982-2.787 2.62-4.526l.267-.731.362.689c1.094 2.081 4.073 3.985 4.536 4.271l14.93-.198.988-4.965c-1.682.165-4.084.2-5.828.2-1.704 0-3.55-.034-5.065-.093l-.333-.012v-2.158l-2.415-.008v-1.266l2.781.008 8.737-.006v-4.77l-9.103.006v-2.004l8.566-.006V4.819l2.98-3.106-1.69-.005-5.551 5.79-2.604-.01 5.55-5.788-1.69-.004-5.547 5.786-2.885-.011 5.545-5.783-1.69-.006-2.498 2.608-12.628.008v11.576l9.043-.006v9.08l-.513-.284c-.879-.488-1.99-1.65-2.488-3.147l-.028-.083.015-.086c.162-.916.311-2.772.34-3.848zM134.809 7.222v3.533l5.043-.003v5.155l-5.722-.008a21.4 21.4 0 0 0-1.566-5.796l-.085-.198 2.33-2.683zm5.043 19.084l-5.668.004.024-.368c.193-2.993.133-6.036.059-8.352-.013-.372-.04-.744-.075-1.115l1.56.002c.033.456.07 1.032.1 1.655.047.974.047 1.934.04 2.484l3.96-.016v5.706zm-16.754-6.151l1.85 5.077a18.168 18.168 0 0 0 3.956-3.057l.592-.607-.002 2.88c-.101 1.117-.494 1.832-1.203 2.187l-.073.037-3.947.003 1.75 4.83h5.01c1.063-.186 2.06-1.411 2.963-3.64l.036-.089.63.123v3.6l15.604-.011v-5.189l-5.372.004v-4.47l-1.445-.003v-1.266l5.862.016v-4.667l-3.203.003v-.001l-1.214-.002v-3.922h-3.489v-1.266l8.324-.001V5.03l-14.978.01v1.298l-.523-.314a69.925 69.925 0 0 0-3.285-1.84 14.098 14.098 0 0 1-1.6 2.025l-.224.234-.248-.208c-.653-.547-1.464-1.087-2.478-1.648l-3.269 3.693a78.87 78.87 0 0 1 2.247 1.752l.27.219-.22.269c-.532.65-1.293 1.203-2.265 1.647l1.58 5.116a21.496 21.496 0 0 0 3.579-2.814l.338-.33.21.42.05.095c.057.107.126.24.18.4l.065.197-.144.15a28.077 28.077 0 0 1-5.914 4.753zM159.712 47.445l1.228-1.198h2.2l1.076 1.197h-4.504zm3.035 2.87l-2.542.001.007-1.29h2.542l-.007 1.29zm-1.779-7.921h2.484l-.007 1.327h-2.482l.005-1.327zm4.542 6.43l.58.535c.392.36 1.14 1.017 1.87 1.488l1.504-2.263c-.818-.505-1.857-1.398-2.2-1.712l-.658-.598 2.408-.024.012-2.53-2.57.001.006-1.328h2.217l.01-2.358h-2.216l.004-1h-2.97l-.006 1h-2.521l.004-1h-2.971l-.005 1h-2.132l-2.123-1.005-1.615 2.153 2.68 1.657 1.4-1.742-.006 1.296h1.785l-.006 1.327h-2.276l-.006 1.317-2.38-1.321-1.654 2.269 2.634 1.708.998-1.447h2.473l-.662.606c-.751.688-1.637 1.469-2.644 2.03l-.13.073-.877-.272c-.351 1.233-1.153 3.594-1.954 5.157l2.229 1.558c.433-1.065 1.046-2.757 1.43-4.118l.176-.622.499.575 1.643-1.054-.02 3.92c0 .464.117.818.351 1.053.248.249.644.375 1.178.375h7.816c1.309-.18 2.009-1.095 2.332-3.053l-2.326-1.036c-.17 1.045-.483 1.548-1.06 1.674l-4.82-.034a.759.759 0 0 1-.227.039.473.473 0 0 1-.358-.151c-.092-.1-.138-.242-.119-.327l-.086-.706h5.344l.015-3.11zM142.673 48.41l.008-1.703.581-.132.08.166c.216.446.478.788.801 1.046l.778.622h-2.248zm1.841 2.833h-6.72l.005-1.179h6.721l-.006 1.18zm-.011 2.65h-6.72l.004-1.178h6.72l-.004 1.179zm-6.286-6.088c.338-.269.65-.63.924-1.076l.651-1.058-.012 2.757h-2.35l.787-.623zm7.167-2.317h4.366l.01-2.359h-7.063l.007-1.326.327-.02a76.542 76.542 0 0 0 5.008-.46l-1.702-2.36c-4.194.473-8.42.756-12.56.84l.84 2.202c1.637 0 3.263-.02 4.834-.055l.36-.008-.007 1.187h-7.122l-.01 2.36h4.013l-.7.611a19.579 19.579 0 0 1-3.496 2.427l1.216 2.615c.203-.13.39-.277.57-.445l.592-.557-.025 5.407h12.448l.023-5.091.495.234c.252.12.577.27.909.408l1.18-2.506a18.757 18.757 0 0 1-3.793-2.49l-.72-.614z"/>
        <g transform="translate(94.57 38.669)">
            <mask id="f" fill="#fff">
                <use xlink:href="#e"/>
            </mask>
            <path fill="#FFF" d="M12.527 12.389l-.576-2.58h2.201l-1.09.842c.4.44.729.912.978 1.403l.17.335h-1.683zm.364 2.539h-1.66l.004-.88 1.66-.001-.004.881zM10.019 5.15h2.55l-.004.881h-2.551l.005-.88zm-1.59 7.239l-.15-2.58h.953l.302 2.58H8.429zm1.057 2.54H7.864l.005-.882H9.49l-.004.881zm.583-12.318h2.473l-.004.881h-2.473l.004-.881zM6.14 14.928H4.497l.005-.88h1.641l-.004.88zm-2.352-2.934c.372-.366.73-.747 1.094-1.161l-.978-1.024h1.713l.039 2.58h-2.27l.402-.395zm13.408-2.186l.007-1.658h-7.158l.004-.899h5.707l.01-2.1 1.355-.001.007-1.658h-1.393l.01-2.12h-5.67L10.082.26H7.31l-.006 1.114H1.461l-.005 1.238H7.3l-.004.88-6.791.001-.008 1.659h6.791l-.004.88H1.44l-.006 1.22h5.843l-.004.9H.249L.242 9.809h1.42l-.242.359c-.312.465-.747.867-1.326 1.227l1.428 2.243.504-.503-.009 1.794H.315l-.01 2.078h16.72l.01-2.079h-1.47l.008-1.827 1.615-1.19.342-.228-1.421-1.875h1.086z" mask="url(#f)"/>
        </g>
        <path fill="#FFF" d="M123.477 40.672c.235-.454.45-.91.652-1.39l-3.892-.323c-.202.612-.484 1.26-.841 1.928l-.065.122h-5.656l-.013 2.92h4.196l-.301.374a26.762 26.762 0 0 1-4.172 4.127l1.43 3.162 1.311-1.069-.022 5.024h3.118l.04-8.444.058-.064a27.7 27.7 0 0 0 2.315-2.99l.069-.103 9.22-.018.013-2.92h-7.634l.174-.336z"/>
        <path fill="#FFF" d="M126.989 49.774h3.366l.013-2.828h-3.367l.01-2.137h-3.331l-.01 2.136-3.18.02-.012 2.828 3.179-.02-.013 2.837-3.394-.004-.013 2.937 10.671.004.014-2.937h-3.947zM187.506 41.311l-.016 3.592c1.414-.394 2.54-.923 3.458-1.392l.337-.172-.055 11.802h4.058l.075-16.128h-3.384c-1.422 1.147-2.847 1.88-4.473 2.298M180.687 50.624c-.418.876-1.326 1.421-2.37 1.421-1.078 0-1.997-.573-2.343-1.46-.566-1.513-.454-5.32-.067-6.674.336-1.144 1.24-1.8 2.478-1.8.123 0 .248.006.38.02 1.192.14 1.953.813 2.197 1.943.332 1.416.226 5.503-.275 6.55m.63-11.195a8.27 8.27 0 0 0-2.935-.526c-.708 0-1.392.086-2.037.255-1.729.438-2.98 1.434-3.72 2.96-1.236 2.485-1.262 6.572-.51 8.829.35 1.034 1.224 2.895 3.143 3.74.824.366 1.895.567 3.013.567 1.158 0 2.283-.209 3.168-.59 1.593-.698 2.844-2.141 3.265-3.765.63-2.533.66-6.455-.378-8.635-.63-1.333-1.672-2.313-3.01-2.835"/>
    </g>
</svg>
