<svg xmlns="http://www.w3.org/2000/svg" width="320" height="100" viewBox="0 0 320 100">
    <path fill="#FFF" fill-rule="evenodd" d="M1.186 62.884V17.06h10.227v45.824H1.186zM63.73 34.04L51.338 59.08h-6.096L32.916 34.04v28.846H22.69V17.059h13.833l11.8 25.174L60.19 17.06h13.768v45.826H63.73V34.039zm119.297 5.507h10.293v16.258c-4.545 5.07-10.84 7.604-18.881 7.604-6.731 0-12.38-2.228-16.948-6.686-4.566-4.458-6.85-10.085-6.85-16.88 0-6.798 2.327-12.469 6.982-17.015 4.654-4.545 10.27-6.817 16.848-6.817 6.578 0 12.292 2.163 17.145 6.49l-5.311 7.67c-2.054-1.79-3.945-3.027-5.671-3.704-1.727-.677-3.595-1.016-5.605-1.016-3.89 0-7.168 1.323-9.834 3.966-2.666 2.645-4 6.13-4 10.457 0 4.327 1.279 7.79 3.836 10.391s5.605 3.901 9.145 3.901c3.54 0 6.49-.678 8.85-2.032V39.546zm20.782 23.338V17.06h10.227v45.825h-10.227zm39.204-23.47c3.497 0 5.878-.568 7.146-1.704 1.268-1.137 1.9-2.94 1.9-5.408 0-2.47-.655-4.164-1.967-5.082-1.31-.917-3.604-1.376-6.882-1.376h-7.67v13.57h7.473zm19.472-7.145c0 7.342-2.907 12.084-8.72 14.226l11.604 16.39h-12.587l-10.163-14.62h-7.08v14.62h-10.227V17.058h17.374c7.124 0 12.204 1.202 15.241 3.605 3.038 2.404 4.558 6.272 4.558 11.605zm49.562 24.29c-4.633 4.523-10.338 6.785-17.112 6.785-6.773 0-12.478-2.262-17.11-6.786-4.634-4.523-6.949-10.15-6.949-16.881s2.315-12.359 6.948-16.882c4.633-4.524 10.338-6.785 17.111-6.785 6.774 0 12.479 2.261 17.112 6.785 4.633 4.523 6.949 10.15 6.949 16.882 0 6.73-2.316 12.358-6.95 16.881zm-3.475-16.85c0-4.085-1.311-7.572-3.934-10.457-2.622-2.884-5.845-4.326-9.67-4.326-3.823 0-7.047 1.442-9.67 4.326-2.621 2.885-3.933 6.372-3.933 10.457 0 4.087 1.312 7.561 3.933 10.424 2.623 2.863 5.847 4.294 9.67 4.294 3.825 0 7.048-1.431 9.67-4.294 2.623-2.863 3.934-6.337 3.934-10.424zm-54.756 42.198c-.963 0-1.753.196-2.371.59-.617.392-.925.986-.925 1.78 0 .796.308 1.404.925 1.824.618.421 1.931.876 3.942 1.362 2.01.486 3.526 1.168 4.545 2.048 1.019.879 1.529 2.174 1.529 3.885 0 1.712-.645 3.101-1.936 4.167-1.291 1.067-2.983 1.6-5.077 1.6-3.067 0-5.79-1.058-8.165-3.171l2.076-2.498c1.983 1.722 4.04 2.581 6.173 2.581 1.065 0 1.912-.228 2.537-.686.628-.46.941-1.067.941-1.824 0-.757-.294-1.347-.884-1.767-.59-.421-1.603-.805-3.043-1.151-1.441-.346-2.535-.663-3.282-.953a7.426 7.426 0 0 1-1.993-1.137c-1.16-.88-1.739-2.227-1.739-4.04 0-1.815.66-3.213 1.979-4.195 1.318-.982 2.95-1.473 4.894-1.473 1.253 0 2.498.206 3.73.618 1.236.41 2.302.99 3.2 1.739l-1.768 2.497c-.58-.524-1.365-.954-2.356-1.29a9.088 9.088 0 0 0-2.932-.506zm-21.784.45v16.58h-3.31v-16.58h-5.948v-3.03h15.205v3.03h-5.947zm-25.753 7.827c1.832 0 3.081-.35 3.745-1.053.664-.701.996-1.73.996-3.086 0-1.356-.42-2.315-1.262-2.876-.842-.56-2.16-.841-3.956-.841h-3.367v7.856h3.844zm-.42-10.858c2.973 0 5.142.57 6.508 1.71 1.365 1.142 2.048 2.901 2.048 5.276s-.697 4.116-2.09 5.219c-1.394 1.104-3.53 1.656-6.41 1.656h-3.48v5.75h-3.31v-19.61h6.734zm-17.62 0v3.115h-10.463v5.19h9.398v2.946h-9.398v5.246h10.801v3.115h-14.111V79.326h13.774zm-31.783 16.609c1.14 0 2.123-.191 2.945-.575.823-.383 1.683-.995 2.58-1.837l2.132 2.188c-2.075 2.3-4.595 3.451-7.56 3.451-2.964 0-5.423-.953-7.378-2.861-1.954-1.908-2.932-4.321-2.932-7.24 0-2.916.997-5.348 2.988-7.294 1.992-1.946 4.508-2.918 7.547-2.918 3.039 0 5.578 1.122 7.616 3.367l-2.103 2.3c-.936-.897-1.82-1.524-2.651-1.88-.833-.355-1.81-.533-2.932-.533-1.982 0-3.647.641-4.994 1.923-1.346 1.28-2.019 2.917-2.019 4.91 0 1.991.668 3.656 2.005 4.994 1.337 1.337 2.923 2.005 4.756 2.005zM132.44 79.326h3.31v19.612h-3.59l-11.11-14.309v14.309h-3.31V79.326h3.31l11.39 14.645V79.326zM104.276 96.23c-1.982 1.937-4.433 2.905-7.35 2.905-2.918 0-5.367-.968-7.35-2.905-1.983-1.936-2.974-4.348-2.974-7.239 0-2.89.991-5.303 2.974-7.238 1.983-1.936 4.432-2.904 7.35-2.904 2.917 0 5.368.968 7.35 2.904 1.982 1.935 2.974 4.348 2.974 7.238 0 2.89-.992 5.303-2.974 7.24zm-2.427-12.275c-1.338-1.384-2.979-2.075-4.923-2.075-1.945 0-3.587.691-4.923 2.075-1.338 1.385-2.006 3.063-2.006 5.036 0 1.973.668 3.652 2.006 5.037 1.336 1.384 2.978 2.076 4.923 2.076 1.944 0 3.585-.692 4.923-2.076 1.337-1.385 2.006-3.064 2.006-5.037 0-1.973-.669-3.651-2.006-5.036zm-31.574 11.98c1.14 0 2.123-.191 2.945-.575.823-.383 1.683-.995 2.58-1.837l2.133 2.188c-2.076 2.3-4.596 3.451-7.56 3.451-2.965 0-5.424-.953-7.379-2.861-1.953-1.908-2.93-4.321-2.93-7.24 0-2.916.995-5.348 2.987-7.294 1.991-1.946 4.507-2.918 7.546-2.918 3.039 0 5.578 1.122 7.617 3.367l-2.105 2.3c-.935-.897-1.818-1.524-2.65-1.88-.833-.355-1.81-.533-2.932-.533-1.982 0-3.647.641-4.993 1.923-1.347 1.28-2.02 2.917-2.02 4.91 0 1.991.669 3.656 2.005 4.994 1.337 1.337 2.923 2.005 4.756 2.005zM1 90.819v-3.626h35.801v3.626H1zm282.75 0v-3.626h35.8v3.626h-35.8zM92.112 63.212l9.484-18.215 11.67 9.847-21.154 8.368zm39.667-26.767l6.359-9.96 3.487 18.596-9.846-8.636zm-18.513 18.399l11.67-9.847 9.483 18.216-21.153-8.369zm0-50.93v48.233l22.44-25.589-10.4-10.498-10.261-10.351-1.78-1.795zm10.54 38.912l-10.54 12.018-10.54-12.018-1.95-2.224-4.681-5.335-4.103-4.68-3.6-4.103 6.36 9.961-9.846 8.636 3.487-18.597 11.568-11.676L113.267 1.38l13.303 13.43 11.569 11.675-5.025 5.73-2.677 3.053-4.679 5.335-1.951 2.224z"/>
</svg>
